# Wavefront OBJ file automatically generated by Tiled2Unity

# Vertices (Count = 242)
v -176 -32 0
v -192 -32 0
v -192 -16 0
v -176 -16 0
v -208 -32 0
v -208 -16 0
v -224 -32 0
v -224 -16 0
v -240 -32 0
v -240 -16 0
v -256 -32 0
v -256 -16 0
v -272 -32 0
v -272 -16 0
v -288 -32 0
v -288 -16 0
v -304 -32 0
v -304 -16 0
v -320 -32 0
v -320 -16 0
v -336 -32 0
v -336 -16 0
v -352 -32 0
v -352 -16 0
v -368 -32 0
v -368 -16 0
v -384 -32 0
v -384 -16 0
v -400 -32 0
v -400 -16 0
v -416 -32 0
v -416 -16 0
v -432 -32 0
v -432 -16 0
v -448 -32 0
v -448 -16 0
v -464 -32 0
v -464 -16 0
v -480 -32 0
v -480 -16 0
v -496 -32 0
v -496 -16 0
v -176 -48 0
v -192 -48 0
v -208 -48 0
v -224 -48 0
v -240 -48 0
v -256 -48 0
v -272 -48 0
v -288 -48 0
v -304 -48 0
v -320 -48 0
v -336 -48 0
v -352 -48 0
v -368 -48 0
v -384 -48 0
v -400 -48 0
v -416 -48 0
v -432 -48 0
v -448 -48 0
v -464 -48 0
v -480 -48 0
v -496 -48 0
v -176 -64 0
v -192 -64 0
v -208 -64 0
v -224 -64 0
v -240 -64 0
v -256 -64 0
v -272 -64 0
v -288 -64 0
v -304 -64 0
v -320 -64 0
v -336 -64 0
v -352 -64 0
v -368 -64 0
v -384 -64 0
v -400 -64 0
v -416 -64 0
v -432 -64 0
v -448 -64 0
v -464 -64 0
v -480 -64 0
v -496 -64 0
v -176 -80 0
v -192 -80 0
v -208 -80 0
v -224 -80 0
v -240 -80 0
v -256 -80 0
v -272 -80 0
v -288 -80 0
v -304 -80 0
v -320 -80 0
v -336 -80 0
v -352 -80 0
v -368 -80 0
v -384 -80 0
v -400 -80 0
v -416 -80 0
v -432 -80 0
v -448 -80 0
v -464 -80 0
v -480 -80 0
v -496 -80 0
v -176 -96 0
v -192 -96 0
v -208 -96 0
v -224 -96 0
v -240 -96 0
v -256 -96 0
v -272 -96 0
v -288 -96 0
v -304 -96 0
v -320 -96 0
v -336 -96 0
v -352 -96 0
v -368 -96 0
v -384 -96 0
v -400 -96 0
v -416 -96 0
v -432 -96 0
v -448 -96 0
v -464 -96 0
v -480 -96 0
v -496 -96 0
v -176 -112 0
v -192 -112 0
v -208 -112 0
v -224 -112 0
v -240 -112 0
v -256 -112 0
v -272 -112 0
v -288 -112 0
v -304 -112 0
v -320 -112 0
v -336 -112 0
v -352 -112 0
v -368 -112 0
v -384 -112 0
v -400 -112 0
v -416 -112 0
v -432 -112 0
v -448 -112 0
v -464 -112 0
v -480 -112 0
v -496 -112 0
v -160 -16 0
v -176 0 0
v -160 0 0
v -192 0 0
v -208 0 0
v -224 0 0
v -240 0 0
v -256 0 0
v -272 0 0
v -288 0 0
v -304 0 0
v -320 0 0
v -336 0 0
v -352 0 0
v -368 0 0
v -384 0 0
v -400 0 0
v -416 0 0
v -432 0 0
v -448 0 0
v -464 0 0
v -480 0 0
v -496 0 0
v -512 -16 0
v -512 0 0
v -160 -32 0
v -512 -32 0
v -160 -48 0
v -512 -48 0
v -160 -64 0
v -512 -64 0
v -160 -80 0
v -512 -80 0
v -160 -96 0
v -512 -96 0
v 0 -112 0
v -16 -112 0
v -16 -96 0
v 0 -96 0
v -32 -112 0
v -32 -96 0
v -48 -112 0
v -48 -96 0
v -64 -112 0
v -64 -96 0
v -144 -112 0
v -160 -112 0
v -144 -96 0
v -512 -112 0
v -160 -128 0
v -176 -128 0
v -192 -128 0
v -208 -128 0
v -224 -128 0
v -240 -128 0
v -256 -128 0
v -272 -128 0
v -288 -128 0
v -304 -128 0
v -320 -128 0
v -336 -128 0
v -352 -128 0
v -368 -128 0
v -384 -128 0
v -400 -128 0
v -416 -128 0
v -432 -128 0
v -448 -128 0
v -464 -128 0
v -480 -128 0
v -496 -128 0
v -512 -128 0
v -160 -144 0
v -176 -144 0
v -192 -144 0
v -208 -144 0
v -224 -144 0
v -240 -144 0
v -256 -144 0
v -272 -144 0
v -288 -144 0
v -304 -144 0
v -320 -144 0
v -336 -144 0
v -352 -144 0
v -368 -144 0
v -384 -144 0
v -400 -144 0
v -416 -144 0
v -432 -144 0
v -448 -144 0
v -464 -144 0
v -480 -144 0
v -496 -144 0
v -512 -144 0

# Texture cooridinates (Count = 412)
vt 0.3833354 0.958498
vt 0.399998 0.958498
vt 0.399998 0.9792452
vt 0.3833354 0.9792452
vt 0.0666687 0.958498
vt 0.0833313 0.958498
vt 0.0833313 0.9792452
vt 0.0666687 0.9792452
vt 0.08333537 0.958498
vt 0.09999797 0.958498
vt 0.09999797 0.9792452
vt 0.08333537 0.9792452
vt 0.100002 0.958498
vt 0.1166646 0.958498
vt 0.1166646 0.9792452
vt 0.100002 0.9792452
vt 0.1166687 0.958498
vt 0.1333313 0.958498
vt 0.1333313 0.9792452
vt 0.1166687 0.9792452
vt 0.1333354 0.958498
vt 0.149998 0.958498
vt 0.149998 0.9792452
vt 0.1333354 0.9792452
vt 0.150002 0.958498
vt 0.1666646 0.958498
vt 0.1666646 0.9792452
vt 0.150002 0.9792452
vt 0.1666687 0.958498
vt 0.1833313 0.958498
vt 0.1833313 0.9792452
vt 0.1666687 0.9792452
vt 0.1833354 0.958498
vt 0.199998 0.958498
vt 0.199998 0.9792452
vt 0.1833354 0.9792452
vt 0.200002 0.958498
vt 0.2166646 0.958498
vt 0.2166646 0.9792452
vt 0.200002 0.9792452
vt 0.2166687 0.958498
vt 0.2333313 0.958498
vt 0.2333313 0.9792452
vt 0.2166687 0.9792452
vt 0.2333354 0.958498
vt 0.249998 0.958498
vt 0.249998 0.9792452
vt 0.2333354 0.9792452
vt 0.250002 0.958498
vt 0.2666646 0.958498
vt 0.2666646 0.9792452
vt 0.250002 0.9792452
vt 0.2666687 0.958498
vt 0.2833313 0.958498
vt 0.2833313 0.9792452
vt 0.2666687 0.9792452
vt 0.2833354 0.958498
vt 0.299998 0.958498
vt 0.299998 0.9792452
vt 0.2833354 0.9792452
vt 0.300002 0.958498
vt 0.3166646 0.958498
vt 0.3166646 0.9792452
vt 0.300002 0.9792452
vt 0.3166687 0.958498
vt 0.3333313 0.958498
vt 0.3333313 0.9792452
vt 0.3166687 0.9792452
vt 0.3333354 0.958498
vt 0.349998 0.958498
vt 0.349998 0.9792452
vt 0.3333354 0.9792452
vt 0.350002 0.958498
vt 0.3666646 0.958498
vt 0.3666646 0.9792452
vt 0.350002 0.9792452
vt 0.3666687 0.958498
vt 0.3833313 0.958498
vt 0.3833313 0.9792452
vt 0.3666687 0.9792452
vt 0.0666687 0.9377457
vt 0.0833313 0.9377457
vt 0.0833313 0.9584929
vt 0.0666687 0.9584929
vt 0.08333537 0.9377457
vt 0.09999797 0.9377457
vt 0.09999797 0.9584929
vt 0.08333537 0.9584929
vt 0.100002 0.9377457
vt 0.1166646 0.9377457
vt 0.1166646 0.9584929
vt 0.100002 0.9584929
vt 0.1166687 0.9377457
vt 0.1333313 0.9377457
vt 0.1333313 0.9584929
vt 0.1166687 0.9584929
vt 0.1333354 0.9377457
vt 0.149998 0.9377457
vt 0.149998 0.9584929
vt 0.1333354 0.9584929
vt 0.150002 0.9377457
vt 0.1666646 0.9377457
vt 0.1666646 0.9584929
vt 0.150002 0.9584929
vt 0.1666687 0.9377457
vt 0.1833313 0.9377457
vt 0.1833313 0.9584929
vt 0.1666687 0.9584929
vt 0.1833354 0.9377457
vt 0.199998 0.9377457
vt 0.199998 0.9584929
vt 0.1833354 0.9584929
vt 0.200002 0.9377457
vt 0.2166646 0.9377457
vt 0.2166646 0.9584929
vt 0.200002 0.9584929
vt 0.2166687 0.9377457
vt 0.2333313 0.9377457
vt 0.2333313 0.9584929
vt 0.2166687 0.9584929
vt 0.2333354 0.9377457
vt 0.249998 0.9377457
vt 0.249998 0.9584929
vt 0.2333354 0.9584929
vt 0.250002 0.9377457
vt 0.2666646 0.9377457
vt 0.2666646 0.9584929
vt 0.250002 0.9584929
vt 0.2666687 0.9377457
vt 0.2833313 0.9377457
vt 0.2833313 0.9584929
vt 0.2666687 0.9584929
vt 0.2833354 0.9377457
vt 0.299998 0.9377457
vt 0.299998 0.9584929
vt 0.2833354 0.9584929
vt 0.300002 0.9377457
vt 0.3166646 0.9377457
vt 0.3166646 0.9584929
vt 0.300002 0.9584929
vt 0.3166687 0.9377457
vt 0.3333313 0.9377457
vt 0.3333313 0.9584929
vt 0.3166687 0.9584929
vt 0.3333354 0.9377457
vt 0.349998 0.9377457
vt 0.349998 0.9584929
vt 0.3333354 0.9584929
vt 0.350002 0.9377457
vt 0.3666646 0.9377457
vt 0.3666646 0.9584929
vt 0.350002 0.9584929
vt 0.3666687 0.9377457
vt 0.3833313 0.9377457
vt 0.3833313 0.9584929
vt 0.3666687 0.9584929
vt 0.3833354 0.9377457
vt 0.399998 0.9377457
vt 0.399998 0.9584929
vt 0.3833354 0.9584929
vt 0.0666687 0.9169934
vt 0.0833313 0.9169934
vt 0.0833313 0.9377407
vt 0.0666687 0.9377407
vt 0.08333537 0.9169934
vt 0.09999797 0.9169934
vt 0.09999797 0.9377407
vt 0.08333537 0.9377407
vt 0.100002 0.9169934
vt 0.1166646 0.9169934
vt 0.1166646 0.9377407
vt 0.100002 0.9377407
vt 0.1166687 0.9169934
vt 0.1333313 0.9169934
vt 0.1333313 0.9377407
vt 0.1166687 0.9377407
vt 0.1333354 0.9169934
vt 0.149998 0.9169934
vt 0.149998 0.9377407
vt 0.1333354 0.9377407
vt 0.150002 0.9169934
vt 0.1666646 0.9169934
vt 0.1666646 0.9377407
vt 0.150002 0.9377407
vt 0.1666687 0.9169934
vt 0.1833313 0.9169934
vt 0.1833313 0.9377407
vt 0.1666687 0.9377407
vt 0.1833354 0.9169934
vt 0.199998 0.9169934
vt 0.199998 0.9377407
vt 0.1833354 0.9377407
vt 0.200002 0.9169934
vt 0.2166646 0.9169934
vt 0.2166646 0.9377407
vt 0.200002 0.9377407
vt 0.2166687 0.9169934
vt 0.2333313 0.9169934
vt 0.2333313 0.9377407
vt 0.2166687 0.9377407
vt 0.2333354 0.9169934
vt 0.249998 0.9169934
vt 0.249998 0.9377407
vt 0.2333354 0.9377407
vt 0.250002 0.9169934
vt 0.2666646 0.9169934
vt 0.2666646 0.9377407
vt 0.250002 0.9377407
vt 0.2666687 0.9169934
vt 0.2833313 0.9169934
vt 0.2833313 0.9377407
vt 0.2666687 0.9377407
vt 0.2833354 0.9169934
vt 0.299998 0.9169934
vt 0.299998 0.9377407
vt 0.2833354 0.9377407
vt 0.300002 0.9169934
vt 0.3166646 0.9169934
vt 0.3166646 0.9377407
vt 0.300002 0.9377407
vt 0.3166687 0.9169934
vt 0.3333313 0.9169934
vt 0.3333313 0.9377407
vt 0.3166687 0.9377407
vt 0.3333354 0.9169934
vt 0.349998 0.9169934
vt 0.349998 0.9377407
vt 0.3333354 0.9377407
vt 0.350002 0.9169934
vt 0.3666646 0.9169934
vt 0.3666646 0.9377407
vt 0.350002 0.9377407
vt 0.3666687 0.9169934
vt 0.3833313 0.9169934
vt 0.3833313 0.9377407
vt 0.3666687 0.9377407
vt 0.3833354 0.9169934
vt 0.399998 0.9169934
vt 0.399998 0.9377407
vt 0.3833354 0.9377407
vt 0.0666687 0.8962412
vt 0.0833313 0.8962412
vt 0.0833313 0.9169884
vt 0.0666687 0.9169884
vt 0.08333537 0.8962412
vt 0.09999797 0.8962412
vt 0.09999797 0.9169884
vt 0.08333537 0.9169884
vt 0.100002 0.8962412
vt 0.1166646 0.8962412
vt 0.1166646 0.9169884
vt 0.100002 0.9169884
vt 0.1166687 0.8962412
vt 0.1333313 0.8962412
vt 0.1333313 0.9169884
vt 0.1166687 0.9169884
vt 0.1333354 0.8962412
vt 0.149998 0.8962412
vt 0.149998 0.9169884
vt 0.1333354 0.9169884
vt 0.150002 0.8962412
vt 0.1666646 0.8962412
vt 0.1666646 0.9169884
vt 0.150002 0.9169884
vt 0.1666687 0.8962412
vt 0.1833313 0.8962412
vt 0.1833313 0.9169884
vt 0.1666687 0.9169884
vt 0.1833354 0.8962412
vt 0.199998 0.8962412
vt 0.199998 0.9169884
vt 0.1833354 0.9169884
vt 0.200002 0.8962412
vt 0.2166646 0.8962412
vt 0.2166646 0.9169884
vt 0.200002 0.9169884
vt 0.2166687 0.8962412
vt 0.2333313 0.8962412
vt 0.2333313 0.9169884
vt 0.2166687 0.9169884
vt 0.2333354 0.8962412
vt 0.249998 0.8962412
vt 0.249998 0.9169884
vt 0.2333354 0.9169884
vt 0.250002 0.8962412
vt 0.2666646 0.8962412
vt 0.2666646 0.9169884
vt 0.250002 0.9169884
vt 0.2666687 0.8962412
vt 0.2833313 0.8962412
vt 0.2833313 0.9169884
vt 0.2666687 0.9169884
vt 0.2833354 0.8962412
vt 0.299998 0.8962412
vt 0.299998 0.9169884
vt 0.2833354 0.9169884
vt 0.300002 0.8962412
vt 0.3166646 0.8962412
vt 0.3166646 0.9169884
vt 0.300002 0.9169884
vt 0.3166687 0.8962412
vt 0.3333313 0.8962412
vt 0.3333313 0.9169884
vt 0.3166687 0.9169884
vt 0.3333354 0.8962412
vt 0.349998 0.8962412
vt 0.349998 0.9169884
vt 0.3333354 0.9169884
vt 0.350002 0.8962412
vt 0.3666646 0.8962412
vt 0.3666646 0.9169884
vt 0.350002 0.9169884
vt 0.3666687 0.8962412
vt 0.3833313 0.8962412
vt 0.3833313 0.9169884
vt 0.3666687 0.9169884
vt 0.3833354 0.8962412
vt 0.399998 0.8962412
vt 0.399998 0.9169884
vt 0.3833354 0.9169884
vt 0.0666687 0.8754889
vt 0.0833313 0.8754889
vt 0.0833313 0.8962361
vt 0.0666687 0.8962361
vt 0.08333537 0.8754889
vt 0.09999797 0.8754889
vt 0.09999797 0.8962361
vt 0.08333537 0.8962361
vt 0.100002 0.8754889
vt 0.1166646 0.8754889
vt 0.1166646 0.8962361
vt 0.100002 0.8962361
vt 0.1166687 0.8754889
vt 0.1333313 0.8754889
vt 0.1333313 0.8962361
vt 0.1166687 0.8962361
vt 0.1333354 0.8754889
vt 0.149998 0.8754889
vt 0.149998 0.8962361
vt 0.1333354 0.8962361
vt 0.150002 0.8754889
vt 0.1666646 0.8754889
vt 0.1666646 0.8962361
vt 0.150002 0.8962361
vt 0.1666687 0.8754889
vt 0.1833313 0.8754889
vt 0.1833313 0.8962361
vt 0.1666687 0.8962361
vt 0.1833354 0.8754889
vt 0.199998 0.8754889
vt 0.199998 0.8962361
vt 0.1833354 0.8962361
vt 0.200002 0.8754889
vt 0.2166646 0.8754889
vt 0.2166646 0.8962361
vt 0.200002 0.8962361
vt 0.2166687 0.8754889
vt 0.2333313 0.8754889
vt 0.2333313 0.8962361
vt 0.2166687 0.8962361
vt 0.2333354 0.8754889
vt 0.249998 0.8754889
vt 0.249998 0.8962361
vt 0.2333354 0.8962361
vt 0.250002 0.8754889
vt 0.2666646 0.8754889
vt 0.2666646 0.8962361
vt 0.250002 0.8962361
vt 0.2666687 0.8754889
vt 0.2833313 0.8754889
vt 0.2833313 0.8962361
vt 0.2666687 0.8962361
vt 0.2833354 0.8754889
vt 0.299998 0.8754889
vt 0.299998 0.8962361
vt 0.2833354 0.8962361
vt 0.300002 0.8754889
vt 0.3166646 0.8754889
vt 0.3166646 0.8962361
vt 0.300002 0.8962361
vt 0.3166687 0.8754889
vt 0.3333313 0.8754889
vt 0.3333313 0.8962361
vt 0.3166687 0.8962361
vt 0.3333354 0.8754889
vt 0.349998 0.8754889
vt 0.349998 0.8962361
vt 0.3333354 0.8962361
vt 0.350002 0.8754889
vt 0.3666646 0.8754889
vt 0.3666646 0.8962361
vt 0.350002 0.8962361
vt 0.3666687 0.8754889
vt 0.3833313 0.8754889
vt 0.3833313 0.8962361
vt 0.3666687 0.8962361
vt 0.3833354 0.8754889
vt 0.399998 0.8754889
vt 0.399998 0.8962361
vt 0.3833354 0.8962361
vt 2.034505E-06 0.8754889
vt 0.01666463 0.8754889
vt 0.01666463 0.8962361
vt 2.034505E-06 0.8962361
vt 0.400002 0.9169934
vt 0.4166646 0.9169934
vt 0.4166646 0.9377407
vt 0.400002 0.9377407
vt 0.400002 0.8962412
vt 0.4166646 0.8962412
vt 0.4166646 0.9169884
vt 0.400002 0.9169884

# Normal
vn 0 0 -1

# Groups (Count = 4)

g mesh_0001
f 1/1/1 2/2/1 3/3/1 4/4/1
f 2/1/1 5/2/1 6/3/1 3/4/1
f 5/1/1 7/2/1 8/3/1 6/4/1
f 7/1/1 9/2/1 10/3/1 8/4/1
f 9/1/1 11/2/1 12/3/1 10/4/1
f 11/1/1 13/2/1 14/3/1 12/4/1
f 13/1/1 15/2/1 16/3/1 14/4/1
f 15/1/1 17/2/1 18/3/1 16/4/1
f 17/1/1 19/2/1 20/3/1 18/4/1
f 19/1/1 21/2/1 22/3/1 20/4/1
f 21/1/1 23/2/1 24/3/1 22/4/1
f 23/1/1 25/2/1 26/3/1 24/4/1
f 25/1/1 27/2/1 28/3/1 26/4/1
f 27/1/1 29/2/1 30/3/1 28/4/1
f 29/1/1 31/2/1 32/3/1 30/4/1
f 31/1/1 33/2/1 34/3/1 32/4/1
f 33/1/1 35/2/1 36/3/1 34/4/1
f 35/1/1 37/2/1 38/3/1 36/4/1
f 37/1/1 39/2/1 40/3/1 38/4/1
f 39/1/1 41/2/1 42/3/1 40/4/1
f 43/5/1 44/6/1 2/7/1 1/8/1
f 44/9/1 45/10/1 5/11/1 2/12/1
f 45/13/1 46/14/1 7/15/1 5/16/1
f 46/17/1 47/18/1 9/19/1 7/20/1
f 47/21/1 48/22/1 11/23/1 9/24/1
f 48/25/1 49/26/1 13/27/1 11/28/1
f 49/29/1 50/30/1 15/31/1 13/32/1
f 50/33/1 51/34/1 17/35/1 15/36/1
f 51/37/1 52/38/1 19/39/1 17/40/1
f 52/41/1 53/42/1 21/43/1 19/44/1
f 53/45/1 54/46/1 23/47/1 21/48/1
f 54/49/1 55/50/1 25/51/1 23/52/1
f 55/53/1 56/54/1 27/55/1 25/56/1
f 56/57/1 57/58/1 29/59/1 27/60/1
f 57/61/1 58/62/1 31/63/1 29/64/1
f 58/65/1 59/66/1 33/67/1 31/68/1
f 59/69/1 60/70/1 35/71/1 33/72/1
f 60/73/1 61/74/1 37/75/1 35/76/1
f 61/77/1 62/78/1 39/79/1 37/80/1
f 62/1/1 63/2/1 41/3/1 39/4/1
f 64/81/1 65/82/1 44/83/1 43/84/1
f 65/85/1 66/86/1 45/87/1 44/88/1
f 66/89/1 67/90/1 46/91/1 45/92/1
f 67/93/1 68/94/1 47/95/1 46/96/1
f 68/97/1 69/98/1 48/99/1 47/100/1
f 69/101/1 70/102/1 49/103/1 48/104/1
f 70/105/1 71/106/1 50/107/1 49/108/1
f 71/109/1 72/110/1 51/111/1 50/112/1
f 72/113/1 73/114/1 52/115/1 51/116/1
f 73/117/1 74/118/1 53/119/1 52/120/1
f 74/121/1 75/122/1 54/123/1 53/124/1
f 75/125/1 76/126/1 55/127/1 54/128/1
f 76/129/1 77/130/1 56/131/1 55/132/1
f 77/133/1 78/134/1 57/135/1 56/136/1
f 78/137/1 79/138/1 58/139/1 57/140/1
f 79/141/1 80/142/1 59/143/1 58/144/1
f 80/145/1 81/146/1 60/147/1 59/148/1
f 81/149/1 82/150/1 61/151/1 60/152/1
f 82/153/1 83/154/1 62/155/1 61/156/1
f 83/157/1 84/158/1 63/159/1 62/160/1
f 85/161/1 86/162/1 65/163/1 64/164/1
f 86/165/1 87/166/1 66/167/1 65/168/1
f 87/169/1 88/170/1 67/171/1 66/172/1
f 88/173/1 89/174/1 68/175/1 67/176/1
f 89/177/1 90/178/1 69/179/1 68/180/1
f 90/181/1 91/182/1 70/183/1 69/184/1
f 91/185/1 92/186/1 71/187/1 70/188/1
f 92/189/1 93/190/1 72/191/1 71/192/1
f 93/193/1 94/194/1 73/195/1 72/196/1
f 94/197/1 95/198/1 74/199/1 73/200/1
f 95/201/1 96/202/1 75/203/1 74/204/1
f 96/205/1 97/206/1 76/207/1 75/208/1
f 97/209/1 98/210/1 77/211/1 76/212/1
f 98/213/1 99/214/1 78/215/1 77/216/1
f 99/217/1 100/218/1 79/219/1 78/220/1
f 100/221/1 101/222/1 80/223/1 79/224/1
f 101/225/1 102/226/1 81/227/1 80/228/1
f 102/229/1 103/230/1 82/231/1 81/232/1
f 103/233/1 104/234/1 83/235/1 82/236/1
f 104/237/1 105/238/1 84/239/1 83/240/1
f 106/241/1 107/242/1 86/243/1 85/244/1
f 107/245/1 108/246/1 87/247/1 86/248/1
f 108/249/1 109/250/1 88/251/1 87/252/1
f 109/253/1 110/254/1 89/255/1 88/256/1
f 110/257/1 111/258/1 90/259/1 89/260/1
f 111/261/1 112/262/1 91/263/1 90/264/1
f 112/265/1 113/266/1 92/267/1 91/268/1
f 113/269/1 114/270/1 93/271/1 92/272/1
f 114/273/1 115/274/1 94/275/1 93/276/1
f 115/277/1 116/278/1 95/279/1 94/280/1
f 116/281/1 117/282/1 96/283/1 95/284/1
f 117/285/1 118/286/1 97/287/1 96/288/1
f 118/289/1 119/290/1 98/291/1 97/292/1
f 119/293/1 120/294/1 99/295/1 98/296/1
f 120/297/1 121/298/1 100/299/1 99/300/1
f 121/301/1 122/302/1 101/303/1 100/304/1
f 122/305/1 123/306/1 102/307/1 101/308/1
f 123/309/1 124/310/1 103/311/1 102/312/1
f 124/313/1 125/314/1 104/315/1 103/316/1
f 125/317/1 126/318/1 105/319/1 104/320/1
f 127/321/1 128/322/1 107/323/1 106/324/1
f 128/325/1 129/326/1 108/327/1 107/328/1
f 129/329/1 130/330/1 109/331/1 108/332/1
f 130/333/1 131/334/1 110/335/1 109/336/1
f 131/337/1 132/338/1 111/339/1 110/340/1
f 132/341/1 133/342/1 112/343/1 111/344/1
f 133/345/1 134/346/1 113/347/1 112/348/1
f 134/349/1 135/350/1 114/351/1 113/352/1
f 135/353/1 136/354/1 115/355/1 114/356/1
f 136/357/1 137/358/1 116/359/1 115/360/1
f 137/361/1 138/362/1 117/363/1 116/364/1
f 138/365/1 139/366/1 118/367/1 117/368/1
f 139/369/1 140/370/1 119/371/1 118/372/1
f 140/373/1 141/374/1 120/375/1 119/376/1
f 141/377/1 142/378/1 121/379/1 120/380/1
f 142/381/1 143/382/1 122/383/1 121/384/1
f 143/385/1 144/386/1 123/387/1 122/388/1
f 144/389/1 145/390/1 124/391/1 123/392/1
f 145/393/1 146/394/1 125/395/1 124/396/1
f 146/397/1 147/398/1 126/399/1 125/400/1

g mesh_0002
f 148/401/1 4/402/1 149/403/1 150/404/1
f 4/401/1 3/402/1 151/403/1 149/404/1
f 3/401/1 6/402/1 152/403/1 151/404/1
f 6/401/1 8/402/1 153/403/1 152/404/1
f 8/401/1 10/402/1 154/403/1 153/404/1
f 10/401/1 12/402/1 155/403/1 154/404/1
f 12/401/1 14/402/1 156/403/1 155/404/1
f 14/401/1 16/402/1 157/403/1 156/404/1
f 16/401/1 18/402/1 158/403/1 157/404/1
f 18/401/1 20/402/1 159/403/1 158/404/1
f 20/401/1 22/402/1 160/403/1 159/404/1
f 22/401/1 24/402/1 161/403/1 160/404/1
f 24/401/1 26/402/1 162/403/1 161/404/1
f 26/401/1 28/402/1 163/403/1 162/404/1
f 28/401/1 30/402/1 164/403/1 163/404/1
f 30/401/1 32/402/1 165/403/1 164/404/1
f 32/401/1 34/402/1 166/403/1 165/404/1
f 34/401/1 36/402/1 167/403/1 166/404/1
f 36/401/1 38/402/1 168/403/1 167/404/1
f 38/401/1 40/402/1 169/403/1 168/404/1
f 40/401/1 42/402/1 170/403/1 169/404/1
f 42/401/1 171/402/1 172/403/1 170/404/1
f 173/401/1 1/402/1 4/403/1 148/404/1
f 41/401/1 174/402/1 171/403/1 42/404/1
f 175/401/1 43/402/1 1/403/1 173/404/1
f 63/401/1 176/402/1 174/403/1 41/404/1
f 177/401/1 64/402/1 43/403/1 175/404/1
f 84/401/1 178/402/1 176/403/1 63/404/1
f 179/401/1 85/402/1 64/403/1 177/404/1
f 105/401/1 180/402/1 178/403/1 84/404/1
f 181/401/1 106/402/1 85/403/1 179/404/1
f 126/401/1 182/402/1 180/403/1 105/404/1
f 183/401/1 184/402/1 185/403/1 186/404/1
f 184/401/1 187/402/1 188/403/1 185/404/1
f 187/401/1 189/402/1 190/403/1 188/404/1
f 189/401/1 191/402/1 192/403/1 190/404/1
f 193/401/1 194/402/1 181/403/1 195/404/1
f 194/401/1 127/402/1 106/403/1 181/404/1
f 127/321/1 128/322/1 107/323/1 106/324/1
f 128/325/1 129/326/1 108/327/1 107/328/1
f 129/329/1 130/330/1 109/331/1 108/332/1
f 130/333/1 131/334/1 110/335/1 109/336/1
f 131/337/1 132/338/1 111/339/1 110/340/1
f 132/341/1 133/342/1 112/343/1 111/344/1
f 133/345/1 134/346/1 113/347/1 112/348/1
f 134/349/1 135/350/1 114/351/1 113/352/1
f 135/353/1 136/354/1 115/355/1 114/356/1
f 136/357/1 137/358/1 116/359/1 115/360/1
f 137/361/1 138/362/1 117/363/1 116/364/1
f 138/365/1 139/366/1 118/367/1 117/368/1
f 139/369/1 140/370/1 119/371/1 118/372/1
f 140/373/1 141/374/1 120/375/1 119/376/1
f 141/377/1 142/378/1 121/379/1 120/380/1
f 142/381/1 143/382/1 122/383/1 121/384/1
f 143/385/1 144/386/1 123/387/1 122/388/1
f 144/389/1 145/390/1 124/391/1 123/392/1
f 145/393/1 146/394/1 125/395/1 124/396/1
f 146/397/1 147/398/1 126/399/1 125/400/1
f 147/401/1 196/402/1 182/403/1 126/404/1
f 197/401/1 198/402/1 127/403/1 194/404/1
f 198/401/1 199/402/1 128/403/1 127/404/1
f 199/401/1 200/402/1 129/403/1 128/404/1
f 200/401/1 201/402/1 130/403/1 129/404/1
f 201/401/1 202/402/1 131/403/1 130/404/1
f 202/401/1 203/402/1 132/403/1 131/404/1
f 203/401/1 204/402/1 133/403/1 132/404/1
f 204/401/1 205/402/1 134/403/1 133/404/1
f 205/401/1 206/402/1 135/403/1 134/404/1
f 206/401/1 207/402/1 136/403/1 135/404/1
f 207/401/1 208/402/1 137/403/1 136/404/1
f 208/401/1 209/402/1 138/403/1 137/404/1
f 209/401/1 210/402/1 139/403/1 138/404/1
f 210/401/1 211/402/1 140/403/1 139/404/1
f 211/401/1 212/402/1 141/403/1 140/404/1
f 212/401/1 213/402/1 142/403/1 141/404/1
f 213/401/1 214/402/1 143/403/1 142/404/1
f 214/401/1 215/402/1 144/403/1 143/404/1
f 215/401/1 216/402/1 145/403/1 144/404/1
f 216/401/1 217/402/1 146/403/1 145/404/1
f 217/401/1 218/402/1 147/403/1 146/404/1
f 218/401/1 219/402/1 196/403/1 147/404/1
f 220/401/1 221/402/1 198/403/1 197/404/1
f 221/401/1 222/402/1 199/403/1 198/404/1
f 222/401/1 223/402/1 200/403/1 199/404/1
f 223/401/1 224/402/1 201/403/1 200/404/1
f 224/401/1 225/402/1 202/403/1 201/404/1
f 225/401/1 226/402/1 203/403/1 202/404/1
f 226/401/1 227/402/1 204/403/1 203/404/1
f 227/401/1 228/402/1 205/403/1 204/404/1
f 228/401/1 229/402/1 206/403/1 205/404/1
f 229/401/1 230/402/1 207/403/1 206/404/1
f 230/401/1 231/402/1 208/403/1 207/404/1
f 231/401/1 232/402/1 209/403/1 208/404/1
f 232/401/1 233/402/1 210/403/1 209/404/1
f 233/401/1 234/402/1 211/403/1 210/404/1
f 234/401/1 235/402/1 212/403/1 211/404/1
f 235/401/1 236/402/1 213/403/1 212/404/1
f 236/401/1 237/402/1 214/403/1 213/404/1
f 237/401/1 238/402/1 215/403/1 214/404/1
f 238/401/1 239/402/1 216/403/1 215/404/1
f 239/401/1 240/402/1 217/403/1 216/404/1
f 240/401/1 241/402/1 218/403/1 217/404/1
f 241/401/1 242/402/1 219/403/1 218/404/1

g mesh_0003
f 89/405/1 90/406/1 69/407/1 68/408/1
f 91/405/1 92/406/1 71/407/1 70/408/1
f 95/405/1 96/406/1 75/407/1 74/408/1
f 98/405/1 99/406/1 78/407/1 77/408/1
f 100/405/1 101/406/1 80/407/1 79/408/1
f 110/409/1 111/410/1 90/411/1 89/412/1
f 112/409/1 113/410/1 92/411/1 91/412/1
f 116/409/1 117/410/1 96/411/1 95/412/1
f 119/409/1 120/410/1 99/411/1 98/412/1
f 121/409/1 122/410/1 101/411/1 100/412/1

